HIERARCHY
ROOT Hips
{
	OFFSET 0.00000 0.00000 0.00000
	CHANNELS 6 Xposition Yposition Zposition Yrotation Zrotation Xrotation 
	JOINT Lumbar
	{
		OFFSET 0 0 0
		CHANNELS 3 Zrotation Xrotation Yrotation
		JOINT Neck
		{
			OFFSET 0.00 0.2701 0.00
			CHANNELS 3 Zrotation Xrotation Yrotation
			End Site
			{
				OFFSET 0.00 0.1379 0.00
			}
		}
		JOINT RightShoulder
		{
			OFFSET 0.0119 0.2289 0.1181
			CHANNELS 3 Zrotation Xrotation Yrotation
			JOINT RightElbow
			{
				OFFSET 0.00 -0.1475 0.00
				CHANNELS 2 Zrotation Yrotation
				JOINT RightWrist
				{
					OFFSET 0.00 -0.1605 0.00
					CHANNELS 2 Zrotation Xrotation
					End Site
					{
						OFFSET 0.0040 -0.1068 0.0006
					}
				}
			}
		}
		JOINT LeftShoulder
		{
			OFFSET 0.0119 0.2289 -0.1181
			CHANNELS 3 Zrotation Xrotation Yrotation
			JOINT LeftElbow
			{
				OFFSET 0.00 -0.1475 0.00
				CHANNELS 2 Zrotation Yrotation
				JOINT LeftWrist
				{
					OFFSET 0.00 -0.1605 0.00
					CHANNELS 2 Zrotation Xrotation
					End Site
					{
						OFFSET 0.0040 -0.1068 -0.0006
					}
				}
			}
		}
	}
	JOINT RightHip
	{
		OFFSET 0.0316 -0.0424 0.0458
		CHANNELS 3 Zrotation Xrotation Yrotation
		JOINT RightKnee
		{
			OFFSET 0.00 -0.2438 0.00
			CHANNELS 1 Zrotation
			JOINT RightAnkle
			{
				OFFSET 0.00 -0.2449 0.00
				CHANNELS 3 Zrotation Xrotation Yrotation
				End Site
				{
					OFFSET 0.1237 -0.0542 0.0051
				}
			}
		}
	}
	JOINT LeftHip
	{
		OFFSET 0.0316 -0.0424 -0.0458
		CHANNELS 3 Zrotation Xrotation Yrotation
		JOINT LeftKnee
		{
			OFFSET 0.00 -0.2438 0.00
			CHANNELS 1 Zrotation
			JOINT LeftAnkle
			{
				OFFSET 0.00 -0.2449 0.00
				CHANNELS 3 Zrotation Xrotation Yrotation
				End Site
				{
					OFFSET 0.1237 -0.0542 -0.0051
				}
			}
		}
	}
}
MOTION
Frames: 22
Frame Time: 0.02
-0.00027 3e-05 -0.00044 25.14797 -32.78548 -4.0607 48.91725 2.6514 -5.67721 7.83727 -1.95791 -0.35613 -17.9671 -10.2901 -8.96945 33.75912 107.18502 9.33797 3.48639 -23.14716 3.16499 22.56296 45.53592 -162.52493 33.31613 -9.81804 44.88032 -0.20893 1.53512 -19.56648 -6.47536 -4.63877 -3.04438 48.95957 3.9793 2.60775 -24.82171 -6.24872 2.44805 1.88995
-0.00037 1e-05 -0.00066 25.07982 -32.73207 -4.07663 48.95894 2.65924 -5.67623 7.69756 -1.90961 -0.35669 -18.01 -10.01269 -10.02511 33.51871 109.75386 9.88565 3.9075 -23.40131 4.4287 19.37187 45.46423 -156.79387 31.35103 -8.99482 44.82595 -0.27179 1.17411 -19.54901 -6.45621 -4.59377 -3.02036 48.89334 4.00369 2.76218 -24.81942 -6.252 2.43712 1.88312
-0.00047 -2e-05 -0.00088 25.01174 -32.67876 -4.09252 49.00049 2.6671 -5.6754 7.55848 -1.86158 -0.35724 -18.05221 -9.73742 -11.07367 33.27855 112.30491 10.42938 4.32569 -23.65355 5.68938 16.18834 45.3924 -151.08681 29.39504 -8.17483 44.77174 -0.33454 0.81358 -19.53159 -6.43708 -4.54883 -2.99637 48.82732 4.02789 2.91547 -24.81716 -6.25528 2.42631 1.87636
-0.00057 -4e-05 -0.0011 24.94379 -32.6255 -4.1084 49.04205 2.67492 -5.67445 7.41924 -1.81344 -0.35779 -18.09493 -9.4611 -12.12535 33.03878 114.86391 10.97493 4.74518 -23.90681 6.94935 13.00667 45.32088 -145.37483 27.43664 -7.35431 44.71753 -0.39723 0.45357 -19.51417 -6.41799 -4.50395 -2.97241 48.7613 4.05217 3.06928 -24.81488 -6.25855 2.41543 1.86956
-0.00068 -6e-05 -0.00132 24.87582 -32.57216 -4.12433 49.08375 2.6827 -5.67329 7.2793 -1.76502 -0.35834 -18.13844 -9.18208 -13.18585 32.79899 117.44532 11.52549 5.16834 -24.16221 8.21199 9.81843 45.2496 -139.63539 25.46754 -6.53014 44.66316 -0.45999 0.09336 -19.49667 -6.39887 -4.45905 -2.94844 48.69509 4.07671 3.22459 -24.81254 -6.26183 2.40437 1.86266
-0.00078 -8e-05 -0.00154 24.8075 -32.51894 -4.14012 49.12499 2.69071 -5.67315 7.14203 -1.7178 -0.3589 -18.17785 -8.91467 -14.20944 32.55808 119.93301 12.05497 5.57617 -24.40771 9.46847 6.64506 45.17662 -133.99604 23.53896 -5.7189 44.60929 -0.52271 -0.26779 -19.47942 -6.37974 -4.41403 -2.92441 48.62945 4.1002 3.37366 -24.81047 -6.26508 2.39411 1.85619
-0.00088 -0.0001 -0.00176 24.73999 -32.46552 -4.15619 49.1671 2.69826 -5.67096 6.99954 -1.66815 -0.35945 -18.22573 -8.62443 -15.30532 32.31958 122.60378 12.62565 6.01394 -24.67331 10.73596 3.44509 45.10718 -128.16484 21.53227 -4.88299 44.55446 -0.58547 -0.62677 -19.46171 -6.36065 -4.36929 -2.90053 48.56273 4.12572 3.53485 -24.80787 -6.26839 2.38227 1.84887
-0.00098 -0.00012 -0.00198 24.67169 -32.41231 -4.17196 49.20842 2.70622 -5.67065 6.86189 -1.6209 -0.36 -18.26535 -8.3548 -16.3361 32.07909 125.11076 13.15952 6.42492 -24.91955 11.9933 0.26996 45.03443 -122.50445 19.59526 -4.06901 44.50056 -0.64816 -0.98754 -19.44441 -6.34153 -4.3243 -2.87651 48.49702 4.14947 3.68536 -24.80573 -6.27165 2.37183 1.84231
-0.00108 -0.00014 -0.00219 24.60254 -32.35925 -4.18755 49.24876 2.71475 -5.67272 6.72999 -1.57596 -0.36056 -18.29656 -8.11225 -17.28084 31.83506 127.3968 13.64352 6.79982 -25.14531 13.2389 -2.87781 44.9577 -117.07587 17.75248 -3.28488 44.4476 -0.71095 -1.35158 -19.42763 -6.32232 -4.27893 -2.85228 48.43244 4.17065 3.8208 -24.80425 -6.27482 2.36335 1.8368
-0.00118 -0.00017 -0.00245 24.53863 -32.30501 -4.20475 49.29467 2.72021 -5.66133 6.56453 -1.51584 -0.3611 -18.38122 -7.71958 -18.70111 31.60803 130.89162 14.39974 7.37225 -25.49844 14.5541 -6.19214 44.90407 -110.38271 15.39477 -2.33816 44.38865 -0.77371 -1.70007 -19.40794 -6.3035 -4.23552 -2.82913 48.36107 4.20536 4.03685 -24.7993 -6.27845 2.34434 1.82561
-0.00128 -0.00019 -0.00261 24.46345 -32.25344 -4.21819 49.32888 2.73202 -5.67816 6.47017 -1.48893 -0.36167 -18.34992 -7.63985 -19.13094 31.34736 131.87693 14.59126 7.5345 -25.57689 15.72097 -9.14872 44.80161 -106.31312 14.10588 -1.72859 44.3427 -0.83616 -2.0792 -19.39433 -6.28395 -4.18816 -2.80382 48.3042 4.21233 4.0868 -24.80146 -6.28114 2.34709 1.82617
-0.00137 -0.00019 -0.00251 24.35878 -32.20781 -4.22411 49.3304 2.76232 -5.77434 6.57041 -1.54453 -0.3623 -18.02366 -8.45904 -16.70847 30.9753 125.56689 13.13687 6.50512 -24.94203 16.48862 -11.16478 44.56434 -109.8862 15.92471 -2.10284 44.32984 -0.90094 -2.56184 -19.3981 -6.26148 -4.12803 -2.7714 48.28626 4.13555 3.64291 -24.82499 -6.28091 2.41387 1.86138
-0.00146 -0.0002 -0.00232 24.24253 -32.16518 -4.22571 49.32032 2.79875 -5.89826 6.74207 -1.63511 -0.36295 -17.5769 -9.58505 -13.31573 30.57329 116.81055 11.13258 5.07577 -24.02355 17.10514 -12.81205 44.27813 -116.01602 18.78495 -2.80564 44.33058 -0.96488 -3.0719 -19.40783 -6.23845 -4.06426 -2.737 48.28309 4.0322 3.03869 -24.85531 -6.27983 2.50175 1.90798
-0.00156 -0.0002 -0.00216 24.13058 -32.12201 -4.22752 49.31591 2.83172 -6.00849 6.88145 -1.71525 -0.3636 -17.16981 -10.5444 -10.45555 30.19705 109.44343 9.4437 3.87301 -23.20875 17.78674 -14.60373 44.0149 -120.68063 21.05381 -3.31863 44.3267 -1.02709 -3.55646 -19.41441 -6.21626 -4.00349 -2.70428 48.27364 3.94614 2.53343 -24.88133 -6.27936 2.57707 1.94776
-0.00164 -0.00021 -0.00205 24.02255 -32.07512 -4.2369 49.30967 2.86769 -6.12425 7.02049 -1.77225 -0.36421 -16.82519 -11.61922 -7.20918 29.76819 100.90869 7.48003 2.48161 -22.50092 18.48639 -16.50067 43.74864 -126.61237 23.82116 -3.99961 44.31601 -1.09803 -4.09519 -19.42295 -6.19158 -3.93723 -2.66835 48.26214 3.83852 1.92013 -24.91254 -6.27788 2.66478 1.99436
-0.00174 -0.00021 -0.00181 23.90376 -32.037 -4.22926 49.30467 2.8987 -6.23393 7.17683 -1.88596 -0.36491 -16.32317 -12.52636 -4.53403 29.44339 94.21507 5.95475 1.38657 -21.50172 19.10867 -18.0808 43.47688 -130.53399 25.79987 -4.41315 44.32304 -1.15082 -4.52877 -19.42871 -6.17196 -3.8813 -2.63851 48.25875 3.76887 1.49078 -24.93449 -6.27835 2.73197 2.02966
-0.00189 -0.00018 -0.00127 23.75698 -32.01982 -4.17755 49.30439 2.91601 -6.3296 7.36588 -2.1458 -0.36584 -15.40642 -12.89302 -3.70548 29.40072 93.31042 5.8087 1.22478 -19.77994 19.58804 -18.96408 43.20406 -128.06757 25.31659 -3.96692 44.37284 -1.1517 -4.65406 -19.42646 -6.16652 -3.85679 -2.6271 48.27097 3.81602 1.6363 -24.92976 -6.28413 2.73479 2.02918
-0.00206 -0.00016 -0.0006 23.60004 -32.0118 -4.10846 49.30601 2.92784 -6.41624 7.5693 -2.46195 -0.36685 -14.33796 -13.08057 -3.48004 29.46652 94.32485 6.11706 1.3722 -17.77284 19.98822 -19.52489 42.9272 -123.52671 24.00834 -3.2475 44.44044 -1.13465 -4.67413 -19.42102 -6.16621 -3.84249 -2.62171 48.29136 3.90131 1.96767 -24.91543 -6.29196 2.71672 2.01726
-0.00222 -0.00013 2e-05 23.44838 -32.00132 -4.04619 49.30784 2.94123 -6.50094 7.76469 -2.75342 -0.36782 -13.34438 -13.35173 -2.9575 29.49048 94.39061 6.19467 1.36678 -15.88767 20.40291 -20.17603 42.65054 -120.07617 23.09738 -2.68015 44.50187 -1.12721 -4.75043 -19.4163 -6.16349 -3.82214 -2.6128 48.31017 3.96551 2.19551 -24.90504 -6.29904 2.70988 2.01177
-0.00238 -0.0001 0.0006 23.29321 -31.98395 -3.98857 49.30492 2.95884 -6.61278 7.96935 -3.04185 -0.36879 -12.31866 -13.62472 -2.49677 29.48048 94.69057 6.35368 1.3986 -14.02362 20.90416 -21.05206 42.37828 -116.09998 22.13036 -2.00737 44.55607 -1.11382 -4.7944 -19.41482 -6.16103 -3.80738 -2.60701 48.32076 4.04452 2.49705 -24.89639 -6.3053 2.69644 2.00155
-0.00255 -8e-05 0.0013 23.14348 -31.98281 -3.91691 49.31226 2.96617 -6.66476 8.15663 -3.35003 -0.36979 -11.32906 -13.8468 -2.06497 29.56918 94.99468 6.46039 1.43251 -12.05359 21.20681 -21.38737 42.09756 -112.68253 21.06806 -1.48382 44.62888 -1.10828 -4.87756 -19.40585 -6.15933 -3.78373 -2.59633 48.34991 4.10225 2.6928 -24.88208 -6.31381 2.69151 1.99824
-0.00276 -8e-05 0.00235 23.00837 -32.02617 -3.81331 49.34899 2.94761 -6.56085 8.29664 -3.6944 -0.3708 -10.44645 -13.97436 -1.5584 29.88807 94.82709 6.29851 1.3915 -9.84615 20.9938 -20.31579 41.78654 -111.39203 19.96227 -1.44807 44.75222 -1.13122 -5.11837 -19.37637 -6.15778 -3.73071 -2.56934 48.43121 4.09079 2.5399 -24.85321 -6.32748 2.715 2.0172
